<svg xmlns="http://www.w3.org/2000/svg" version="1.1" xmlns:xlink="http://www.w3.org/1999/xlink" width="1000" height="1000"><style>
    #light-icon {
      display: inline;
    }
    #dark-icon {
      display: none;
    }

    @media (prefers-color-scheme: dark) {
      #light-icon {
        display: none;
      }
      #dark-icon {
        display: inline;
      }
    }
  </style><g id="light-icon"><svg xmlns="http://www.w3.org/2000/svg" version="1.1" xmlns:xlink="http://www.w3.org/1999/xlink" width="1000" height="1000"><g clip-path="url(#SvgjsClipPath1321)"><rect width="1000" height="1000" fill="#ffffff"></rect><g transform="matrix(10,0,0,10,0,0)"><svg xmlns="http://www.w3.org/2000/svg" version="1.1" xmlns:xlink="http://www.w3.org/1999/xlink" width="100" height="100"><svg xmlns="http://www.w3.org/2000/svg" viewBox="0 0 100 100">
  <style>
    .bg { fill: #FFD700; }
    .bulb { fill: #1a1a1a; }
    @media (prefers-color-scheme: dark) {
      .bg { fill: #1a1a1a; }
      .bulb { fill: #FFD700; }
    }
  </style>
  <rect class="bg" width="100" height="100" rx="20"></rect>
  <path class="bulb" d="M50 15c-16 0-29 13-29 29 0 11 6 21 16 26v8c0 3 2 5 5 5h16c3 0 5-2 5-5v-8c10-5 16-15 16-26 0-16-13-29-29-29z"></path>
  <path class="bg" d="M42 35h4v10h-4zm12 0h4v10h-4z"></path>
  <rect class="bulb" x="42" y="75" width="16" height="8" rx="2" fill-opacity="0.5"></rect>
</svg></svg></g></g><defs><clipPath id="SvgjsClipPath1321"><rect width="1000" height="1000" x="0" y="0" rx="500" ry="500"></rect></clipPath></defs></svg></g><g id="dark-icon"><svg xmlns="http://www.w3.org/2000/svg" version="1.1" xmlns:xlink="http://www.w3.org/1999/xlink" width="1000" height="1000"><g><g transform="matrix(10,0,0,10,0,0)"><svg xmlns="http://www.w3.org/2000/svg" version="1.1" xmlns:xlink="http://www.w3.org/1999/xlink" width="100" height="100"><svg xmlns="http://www.w3.org/2000/svg" viewBox="0 0 100 100">
  <style>
    .bg { fill: #FFD700; }
    .bulb { fill: #1a1a1a; }
    @media (prefers-color-scheme: dark) {
      .bg { fill: #1a1a1a; }
      .bulb { fill: #FFD700; }
    }
  </style>
  <rect class="bg" width="100" height="100" rx="20"></rect>
  <path class="bulb" d="M50 15c-16 0-29 13-29 29 0 11 6 21 16 26v8c0 3 2 5 5 5h16c3 0 5-2 5-5v-8c10-5 16-15 16-26 0-16-13-29-29-29z"></path>
  <path class="bg" d="M42 35h4v10h-4zm12 0h4v10h-4z"></path>
  <rect class="bulb" x="42" y="75" width="16" height="8" rx="2" fill-opacity="0.5"></rect>
</svg></svg></g></g></svg></g></svg>